# xmcd CD database file
#
# Track frame offsets:
#	150
#	20322
#	30964
#	44515
#	60104
#	66089
#	89475
#	105762
#	124502
#	142968
#	157743
#	165144
#	176099
#	210464
#	227114
#	244409
#	269729
#	291767
#	311675
#
# Disc length: 4432 seconds
#
# Revision: 1
# Processed by: cddbd v1.4PL0 Copyright (c) Steve Scherf et al.
# Submitted via: CDex 1.50beta10
#
DISCID=f2114e13
DTITLE=FHC Jazz - Jazz On A Rainy Friday Night
DYEAR=2003
DGENRE=Jazz
TTITLE0=Jazz Ensemble - Scoots Blues
TTITLE1=Jazz Ensemble - At the Buzzer
TTITLE2=Jazz Ensemble - Last Night Of The Bengal
TTITLE3=Combo 3 - Cousin Mary
TTITLE4=Duet - Minuet
TTITLE5=Combo 2 - MY Funny Valentine
TTITLE6=Spartan Jazz - Blues, Blues, Blues
TTITLE7=Spartan Jazz - Shermon's Sermon 
TTITLE8=Spartan Jazz - Bacchanalia
TTITLE9=Combo 1 - Chameleon
TTITLE10=Josh Funke - Flight Of The Bumble Bee
TTITLE11=Future Janitors - Broom Hilda
TTITLE12=Jazz Ensemble - Things Ain't What They Used To Be
TTITLE13=Jazz Ensemble - When Sunny Gets Blue
TTITLE14=Jazz Ensemble - Millennium Dance
TTITLE15=Spartan Jazz - Kind Of True
TTITLE16=Spartan Jazz - Then And Now
TTITLE17=Spartan Jazz - Chronometry
TTITLE18=Spartan Jazz - Sing, Sing, Sing
EXTD=YEAR: 2003
EXTT0=
EXTT1=
EXTT2=
EXTT3=
EXTT4=
EXTT5=
EXTT6=
EXTT7=
EXTT8=
EXTT9=
EXTT10=
EXTT11=
EXTT12=
EXTT13=
EXTT14=
EXTT15=
EXTT16=
EXTT17=
EXTT18=
PLAYORDER=
